<svg version="1.1" xmlns="http://www.w3.org/2000/svg" viewBox="-5.931971746108241 -3.9855125087581893 11.863943031899383 7.944128593820324" fill="none" stroke="black" stroke-width="0.6%" vector-effect="non-scaling-stroke">
    <path d="M -4.93197 -0.66569 L -3.94558 -0.08472" />
    <path d="M -3.94558 0.66165 L -3.94558 -0.08472" />
    <path d="M -3.94558 0.66165 L -0.98639 2.40455" />
    <path d="M -0.98639 1.65817 L -0.98639 2.40455" />
    <path d="M -0.98639 1.65817 L 0 2.23913 L 0 0 L 4.93197 -0.08069 L 0 -2.98551 L -4.93197 -2.90482 L 0 0" />
    <path d="M -4.93197 -0.66569 L -4.93197 -2.90482" />
    <path d="M 3.94558 2.32386 L 3.28798 2.33462" />
    <path d="M 1.64399 2.95862 L 3.28798 2.93172" />
    <path d="M 1.64399 2.95862 L 0.6576 2.37765 L 0.6576 2.22838" />
    <path d="M 0.6576 2.37765 L -0.98639 2.40455" />
    <path d="M 0 2.23913 L 1.64399 2.21224" />
    <path d="M 1.64399 2.95862 L 1.64399 2.21224" />
    <path d="M 3.28798 2.18534 L 3.28798 2.93172" />
    <path d="M 3.28798 2.18534 L 4.93197 2.15844 L 4.93197 -0.08069" />
    <path d="M 3.94558 2.32386 L 3.94558 2.17458" />
</svg>