<svg version="1.1" xmlns="http://www.w3.org/2000/svg" viewBox="-4.945577083754463 -3.9586162399588662 9.891154299028148 7.917232557379677" fill="none" stroke="black" stroke-width="0.6%" vector-effect="non-scaling-stroke">
    <path d="M -3.94558 0.66165 L -0.98639 2.40455" />
    <path d="M -0.98639 -0.58096 L -0.98639 2.40455" />
    <path d="M -3.94558 -2.32386 L -0.98639 -0.58096 L 0.6576 -0.60786 L 1.64399 -0.0269 L 3.28798 -0.05379 L 3.28798 2.93172" />
    <path d="M -3.94558 0.66165 L -3.94558 -2.32386" />
    <path d="M 3.94558 2.32386 L 3.28798 2.33462" />
    <path d="M 1.64399 2.95862 L 3.28798 2.93172" />
    <path d="M 1.64399 2.95862 L 0.6576 2.37765 L 0.6576 -0.60786" />
    <path d="M 0.6576 2.37765 L -0.98639 2.40455" />
    <path d="M -0.6576 -2.37765 L -1.64399 -2.95862 L -3.28798 -2.93172 L -2.30159 -2.35075 L -3.94558 -2.32386" />
    <path d="M 0.98639 -2.40455 L -0.6576 -2.37765" />
    <path d="M 3.94558 -0.66165 L 0.98639 -2.40455" />
    <path d="M 2.30159 -0.63476 L 3.94558 -0.66165" />
    <path d="M 3.28798 -0.05379 L 2.30159 -0.63476" />
    <path d="M -3.28798 -2.33462 L -3.28798 -2.93172" />
    <path d="M 3.94558 2.32386 L 3.94558 -0.66165" />
    <path d="M 1.64399 2.95862 L 1.64399 -0.0269" />
</svg>