<svg version="1.1" xmlns="http://www.w3.org/2000/svg" viewBox="-5.808671702740243 -3.958615697241755 11.617343405480485 7.917231404166249" fill="none" stroke="black" stroke-width="0.6%" vector-effect="non-scaling-stroke">
    <path d="M -4.80867 0.15331 L -0.1233 2.91289 L -0.1233 -0.07262 L 1.52069 -0.09952 L 1.64399 -0.0269 L 3.28798 -0.05379 L 3.16468 -0.12641 L 4.80867 -0.15331 L 0.1233 -2.91289 L -1.52069 -2.88599 L -1.64399 -2.95861 L -3.28798 -2.93172 L -3.16468 -2.8591 L -4.80867 -2.8322 L -0.1233 -0.07262" />
    <path d="M -4.80867 0.15331 L -4.80867 -2.8322" />
    <path d="M 4.80867 2.8322 L 3.28798 2.85708" />
    <path d="M 1.64399 2.95861 L 3.28798 2.93172 L 3.28798 -0.05379" />
    <path d="M 1.64399 2.95861 L 1.52069 2.88599 L 1.52069 -0.09952" />
    <path d="M 1.52069 2.88599 L -0.1233 2.91289" />
    <path d="M -3.28798 -2.85708 L -3.28798 -2.93172" />
    <path d="M 4.80867 2.8322 L 4.80867 -0.15331" />
    <path d="M 1.64399 2.95861 L 1.64399 -0.0269" />
</svg>